<?xml version="1.0" standalone="no"?><!DOCTYPE svg PUBLIC "-//W3C//DTD SVG 1.1//EN" "http://www.w3.org/Graphics/SVG/1.1/DTD/svg11.dtd"><svg t="1572171520202" class="icon" viewBox="0 0 1024 1024" version="1.1" xmlns="http://www.w3.org/2000/svg" p-id="2145" width="32" height="32" xmlns:xlink="http://www.w3.org/1999/xlink"><defs><style type="text/css"></style></defs><path d="M739.6 822.2H284.4c-34.6 0-62.6-28-62.6-62.6V332.6c0-34.6 28-62.6 62.6-62.6h455c34.6 0 62.6 28 62.6 62.6v426.8c0.2 34.8-27.8 62.8-62.4 62.8z" fill="#FFFFFF" p-id="2146" data-spm-anchor-id="a313x.7781069.0.i2" class="selected"></path><path d="M777.6 462H246.4c-14.2 0-25.8-11.6-25.8-25.8s11.6-25.8 25.8-25.8h531.2c14.2 0 25.8 11.6 25.8 25.8S792 462 777.6 462z" fill="#D1DBC6" p-id="2147"></path><path d="M579 490.4c-37 0-67 30-67 67 0-37-30-67-67-67s-67 30-67 67c0 16.6 6 31.6 15.8 43.4l0.8 1c0.2 0.4 0.6 0.6 0.8 1l20.2 22.8 12.4 14 83.8 94.8 83.8-94.8 12.4-14 20.4-23c0.2-0.4 0.6-0.6 0.8-1l0.8-1c10-11.8 15.8-26.8 15.8-43.4 0.2-36.8-29.8-66.8-66.8-66.8z" fill="#F1946B" p-id="2148"></path><path d="M732 830.8H292c-43.4 0-78.8-35.4-78.8-78.8V340c0-43.4 35.4-78.8 78.8-78.8h440c43.4 0 78.8 35.4 78.8 78.8v412c0 43.6-35.2 78.8-78.8 78.8zM292 278.6c-33.8 0-61.4 27.6-61.4 61.4v412c0 33.8 27.6 61.4 61.4 61.4h440c33.8 0 61.4-27.6 61.4-61.4V340c0-33.8-27.6-61.4-61.4-61.4H292z" fill="#434244" p-id="2149"></path><path d="M810.8 421.4H213.2v-89c0-39.2 32-71.2 71.2-71.2h455.4c34.8 2 71.2 27.8 71.2 71.4v88.8z m-580.4-17.2h563v-71.4c0-33.4-27.4-52.4-54.2-54H284.2c-29.6 0-53.8 24.2-53.8 53.8v71.6z" fill="#434244" p-id="2150"></path><path d="M802.2 332.4v80.4H221.8v-80.4c0-34.6 28-62.4 62.4-62.4h455.4c34.6 0 62.6 28 62.6 62.4z" fill="#F1946B" p-id="2151"></path><path d="M810.8 421.4H213.2v-89c0-39.2 32-71.2 71.2-71.2h455.4c39.2 0 71.2 32 71.2 71.2v89z m-580.4-17.2h563v-71.6c0-29.6-24.2-53.8-53.8-53.8H284.2c-29.6 0-53.8 24.2-53.8 53.8v71.6z" fill="#434244" p-id="2152"></path><path d="M402 342.6c-18 0-32.4-14.6-32.4-32.4v-76c0-18 14.6-32.4 32.4-32.4 18 0 32.4 14.6 32.4 32.4v76c0 18-14.4 32.4-32.4 32.4zM622 342.6c-18 0-32.4-14.6-32.4-32.4v-76c0-18 14.6-32.4 32.4-32.4 18 0 32.4 14.6 32.4 32.4v76c0 18-14.6 32.4-32.4 32.4z" fill="#FFFFFF" p-id="2153"></path><path d="M402 351.4c-22.6 0-41.2-18.4-41.2-41.2v-76c0-22.6 18.4-41.2 41.2-41.2 22.6 0 41 18.4 41 41.2v76c0.2 22.6-18.4 41.2-41 41.2z m0-141c-13 0-23.8 10.6-23.8 23.8v76c0 13 10.6 23.8 23.8 23.8 13 0 23.8-10.6 23.8-23.8v-76c0-13-10.6-23.8-23.8-23.8zM622 351.4c-22.6 0-41.2-18.4-41.2-41.2v-76c0-22.6 18.4-41.2 41.2-41.2s41.2 18.4 41.2 41.2v76c-0.2 22.6-18.6 41.2-41.2 41.2z m0-141c-13 0-23.8 10.6-23.8 23.8v76c0 13 10.6 23.8 23.8 23.8s23.8-10.6 23.8-23.8v-76c0-13-10.8-23.8-23.8-23.8z" fill="#434244" p-id="2154"></path><path d="M512 747.4l-124.6-141c-11.6-13.8-18-31.2-18-49 0-41.8 34-75.6 75.6-75.6 29 0 54.4 16.4 67 40.6 12.6-24 38-40.6 67-40.6 41.8 0 75.6 34 75.6 75.6 0 18-6.4 35.2-18 49l-1 1.2-1 1-122.6 138.8z m-67-248.4c-32.2 0-58.4 26.2-58.4 58.4 0 13.8 5 27.2 13.8 37.8l111.4 126.2 111.6-126.2c8.8-10.4 13.8-23.8 13.8-37.6 0-32.2-26.2-58.4-58.4-58.4s-58.4 26.2-58.4 58.4h-17.4c0.4-32.4-25.8-58.6-58-58.6z" fill="#434244" p-id="2155"></path></svg>